# File created by Blade
# Date/Time:  Tue Jan 27 18:12:51 2015
#---------------------------------------------------------
:version 1.10
:name HOM
:units
  mass 1.0
  length 1.000000
  angle deg
:documentation
     Acclaim Skeleton File
:root
   axis xyz
   order TX TY TZ RX RY RZ
   position 0.000000 0.000000 0.000000
   orientation 0 0 0
:bonedata
   begin
      id 1
      name Spine_dum
      direction 0.000000 1.000000 0.000000
      length 5.195262
      axis 0.0 0.0 0.0 xyz
   end
   begin
      id 2
      name LeftUpLeg_dum
      direction 1.000000 0.000000 0.000000
      length 3.351363
      axis 0.0 0.0 0.0 xyz
   end
   begin
      id 3
      name RightUpLeg_dum
      direction -1.000000 0.000000 0.000000
      length 3.351363
      axis 0.0 0.0 0.0 xyz
   end
   begin
      id 4
      name Spine
      direction 0.000000 1.000000 0.000000
      length 0.000000
      axis 0.0 0.0 0.0 xyz
      dof rx ry rz
   end
   begin
      id 5
      name Spine_dum1
      direction 0.000000 1.000000 0.000000
      length 15.653875
      axis 0.0 0.0 0.0 xyz
   end
   begin
      id 6
      name Spine_dum2
      direction 0.000000 1.000000 0.000000
      length 10.329768
      axis 0.0 0.0 0.0 xyz
   end
   begin
      id 7
      name Spine_dum3
      direction 0.000000 1.000000 0.000000
      length 10.329768
      axis 0.0 0.0 0.0 xyz
   end
   begin
      id 8
      name Head
      direction 0.000000 1.000000 0.000000
      length 4.527550
      axis 0.0 0.0 0.0 xyz
      dof rx ry rz
   end
   begin
      id 9
      name LeftShoulder
      direction 1.000000 0.000000 0.000000
      length 6.996006
      axis 0.0 0.0 -90.0 xyz
      dof rx ry rz
   end
   begin
      id 10
      name LeftArm
      direction 1.000000 0.000000 0.000000
      length 10.209302
      axis 0.0 0.0 -90.0 xyz
      dof rx ry rz
   end
   begin
      id 11
      name LeftForeArm
      direction 1.000000 0.000000 0.000000
      length 8.563163
      axis 0.0 0.0 -90.0 xyz
      dof ry rz rx
   end
   begin
      id 12
      name LeftHand
      direction 0.000000 0.000000 0.000000
      length 0.000000
      axis 0.0 0.0 -90.0 xyz
      dof rx ry rz
   end
   begin
      id 13
      name LeftHand_dum1
      direction 0.000000 0.000000 0.000000
      length 0.000000
      axis 0.0 0.0 -90.0 xyz
   end
   begin
      id 14
      name LeftHand_dum2
      direction 1.000000 0.000000 0.000000
      length 3.937000
      axis 0.0 0.0 -90.0 xyz
   end
   begin
      id 15
      name LeftHandThumb1
      direction 0.000000 0.000000 1.000000
      length 3.937000
      axis 0.0 0.0 -90.0 xyz
      dof rx rz ry
   end
   begin
      id 16
      name RightShoulder
      direction -1.000000 0.000000 0.000000
      length 6.996006
      axis 0.0 0.0 90.0 xyz
      dof rx ry rz
   end
   begin
      id 17
      name RightArm
      direction -1.000000 0.000000 0.000000
      length 10.209302
      axis 0.0 0.0 90.0 xyz
      dof rx ry rz
   end
   begin
      id 18
      name RightForeArm
      direction -1.000000 0.000000 0.000000
      length 8.563163
      axis 0.0 0.0 90.0 xyz
      dof ry rz rx
   end
   begin
      id 19
      name RightHand
      direction 0.000000 0.000000 0.000000
      length 0.000000
      axis 0.0 0.0 90.0 xyz
      dof rx ry rz
   end
   begin
      id 20
      name RightHand_dum1
      direction 0.000000 0.000000 0.000000
      length 0.000000
      axis 0.0 0.0 90.0 xyz
   end
   begin
      id 21
      name RightHand_dum2
      direction -1.000000 0.000000 0.000000
      length 3.937000
      axis 0.0 0.0 90.0 xyz
   end
   begin
      id 22
      name RightHandThumb1
      direction 0.000000 0.000000 1.000000
      length 3.937000
      axis 0.0 0.0 90.0 xyz
      dof rx rz ry
   end
   begin
      id 23
      name LeftUpLeg
      direction 0.000000 -1.000000 0.000000
      length 16.346831
      axis 0.0 0.0 0.0 xyz
      dof rx ry rz
   end
   begin
      id 24
      name LeftLeg
      direction 0.000000 -1.000000 0.000000
      length 13.959795
      axis 0.0 0.0 0.0 xyz
      dof rx ry rz
   end
   begin
      id 25
      name LeftFoot
      direction 0.000000 -0.258819 0.965926
      length 5.165550
      axis 15.0 0.0 0.0 xyz
      dof rx ry rz
   end
   begin
      id 26
      name LeftToeBase
      direction 0.000000 0.000000 1.000000
      length 2.952750
      axis 0.0 0.0 0.0 xyz
      dof rx ry rz
   end
   begin
      id 27
      name RightUpLeg
      direction 0.000000 -1.000000 0.000000
      length 16.346831
      axis 0.0 0.0 0.0 xyz
      dof rx ry rz
   end
   begin
      id 28
      name RightLeg
      direction 0.000000 -1.000000 0.000000
      length 13.959795
      axis 0.0 0.0 0.0 xyz
      dof rx ry rz
   end
   begin
      id 29
      name RightFoot
      direction 0.000000 -0.258819 0.965926
      length 5.165550
      axis 15.0 0.0 0.0 xyz
      dof rx ry rz
   end
   begin
      id 30
      name RightToeBase
      direction 0.000000 0.000000 1.000000
      length 2.952750
      axis 0.0 0.0 0.0 xyz
      dof rx ry rz
   end
:hierarchy
   begin
      root Spine_dum LeftUpLeg_dum RightUpLeg_dum
      Spine_dum Spine
      LeftUpLeg_dum LeftUpLeg
      RightUpLeg_dum RightUpLeg
      Spine Spine_dum1 Spine_dum2 Spine_dum3
      Spine_dum1 Head
      Spine_dum2 LeftShoulder
      Spine_dum3 RightShoulder
      LeftShoulder LeftArm
      LeftArm LeftForeArm
      LeftForeArm LeftHand
      LeftHand LeftHand_dum1 LeftHand_dum2
      LeftHand_dum1 LeftHandThumb1
      RightShoulder RightArm
      RightArm RightForeArm
      RightForeArm RightHand
      RightHand RightHand_dum1 RightHand_dum2
      RightHand_dum1 RightHandThumb1
      LeftUpLeg LeftLeg
      LeftLeg LeftFoot
      LeftFoot LeftToeBase
      RightUpLeg RightLeg
      RightLeg RightFoot
      RightFoot RightToeBase
   end

# File created by Blade
# Date/Time:  Tue Jan 27 18:12:42 2015
# Frame Rate: 120.000 fps
#------------------------------------------------------
:FULLY-SPECIFIED
:DEGREES
658
root -1.198598 31.786052 -6.432978 4.599726 17.719853 5.184740
Spine -8.349728 4.149424 -1.642896
Head 14.675762 -3.589905 1.321037
LeftShoulder -9.284724 16.388755 3.654880
LeftArm 27.044882 41.965019 -67.839832
LeftForeArm -0.988678 -0.000000 13.608597
LeftHand -10.678882 -0.000000 -5.897941
LeftHandThumb1 -26.253704 0.000000 33.147579
RightShoulder 11.541505 29.312318 -15.725037
RightArm 32.906750 -18.489578 104.574013
RightForeArm 25.154629 -0.000000 41.873271
RightHand -10.670533 -0.000000 7.509551
RightHandThumb1 -24.326973 -0.000000 -32.862282
LeftUpLeg -0.866872 -7.192002 -2.356086
LeftLeg 1.884273 -0.000000 -0.000000
LeftFoot -15.856840 12.722878 -23.599817
LeftToeBase 8.505733 -0.000000 -0.000000
RightUpLeg 5.386703 -10.428301 -5.310865
RightLeg -3.448860 -0.000000 0.000000
RightFoot -18.077069 -17.792430 11.169244
RightToeBase 5.481978 -0.000000 -0.000000
659
root -1.202147 31.785705 -6.433538 4.608922 17.782281 5.183759
Spine -8.360876 4.155800 -1.702889
Head 14.618686 -3.586946 1.550866
LeftShoulder -9.386392 16.418246 3.606953
LeftArm 27.128459 41.909184 -67.758405
LeftForeArm -1.005395 -0.000000 13.619964
LeftHand -10.651937 -0.000000 -5.989235
LeftHandThumb1 -26.253704 0.000000 33.147579
RightShoulder 11.774776 29.192172 -15.587586
RightArm 32.714637 -18.801658 104.459080
RightForeArm 24.662961 -0.000000 39.845473
RightHand -10.550619 -0.000000 7.661775
RightHandThumb1 -24.326973 -0.000000 -32.862282
LeftUpLeg -0.889372 -7.257477 -2.343428
LeftLeg 1.889577 -0.000000 -0.000000
LeftFoot -15.856671 12.735869 -23.601924
LeftToeBase 8.539740 -0.000000 -0.000000
RightUpLeg 5.375577 -10.465580 -5.297134
RightLeg -3.423094 -0.000000 0.000000
RightFoot -18.097258 -17.824582 11.138378
RightToeBase 5.510684 -0.000000 -0.000000
660
root -1.205257 31.783490 -6.432437 4.597840 17.859998 5.152366
Spine -8.345522 4.320891 -1.760813
Head 14.498169 -3.766039 1.789159
LeftShoulder -9.331258 16.389017 3.633893
LeftArm 27.137975 41.851482 -67.769737
LeftForeArm -0.968950 -0.000000 13.648376
LeftHand -10.565633 -0.000000 -5.873979
LeftHandThumb1 -26.253704 0.000000 33.147579
RightShoulder 11.715825 29.199253 -15.515941
RightArm 32.443249 -19.257047 104.364245
RightForeArm 24.107710 -0.000000 37.705894
RightHand -10.572550 0.000000 7.598830
RightHandThumb1 -24.326973 -0.000000 -32.862282
LeftUpLeg -0.864431 -7.405137 -2.290407
LeftLeg 1.837872 -0.000000 -0.000000
LeftFoot -15.883776 12.733092 -23.687127
LeftToeBase 8.524748 -0.000000 -0.000000
RightUpLeg 5.388146 -10.521901 -5.258250
RightLeg -3.412575 -0.000000 0.000000
RightFoot -18.108197 -17.828522 11.143096
RightToeBase 5.457713 -0.000000 -0.000000
661
root -1.208882 31.783976 -6.436406 4.649510 17.956319 5.181115
Spine -8.384321 4.398768 -1.882675
Head 14.427580 -3.902131 2.030777
LeftShoulder -9.280377 16.353057 3.672415
LeftArm 27.059890 41.761390 -67.849216
LeftForeArm -0.981842 -0.000000 13.692713
LeftHand -10.546887 -0.000000 -5.741546
LeftHandThumb1 -26.253704 0.000000 33.147579
RightShoulder 11.752464 29.047704 -15.356979
RightArm 32.301394 -19.746263 104.172556
RightForeArm 23.528969 -0.000000 35.575558
RightHand -10.531241 -0.000000 7.604591
RightHandThumb1 -24.326973 -0.000000 -32.862282
LeftUpLeg -0.963027 -7.384233 -2.308760
LeftLeg 1.916344 -0.000000 -0.000000
LeftFoot -15.849107 12.687899 -23.596194
LeftToeBase 8.505366 -0.000000 -0.000000
RightUpLeg 5.344271 -10.564041 -5.263778
RightLeg -3.388194 -0.000000 0.000000
RightFoot -18.150798 -17.877014 11.165923
RightToeBase 5.476311 -0.000000 -0.000000
662
root -1.212215 31.783117 -6.436078 4.661579 18.052829 5.182434
Spine -8.395673 4.472625 -1.967280
Head 14.377760 -4.014838 2.232311
LeftShoulder -9.288695 16.408899 3.676173
LeftArm 27.123313 41.659436 -67.819879
LeftForeArm -0.909465 -0.000000 13.755038
LeftHand -10.561840 -0.000000 -5.651034
LeftHandThumb1 -26.253704 0.000000 33.147579
RightShoulder 11.779888 28.842465 -15.220203
RightArm 32.197814 -20.218626 104.041280
RightForeArm 23.386851 -0.000000 33.440891
RightHand -10.473114 0.000000 7.444604
RightHandThumb1 -24.326973 -0.000000 -32.862282
LeftUpLeg -0.989408 -7.413086 -2.293305
LeftLeg 1.930218 -0.000000 -0.000000
LeftFoot -15.832758 12.631021 -23.585566
LeftToeBase 8.469278 -0.000000 -0.000000
RightUpLeg 5.345900 -10.616123 -5.251444
RightLeg -3.374838 -0.000000 0.000000
RightFoot -18.175303 -17.904699 11.179132
RightToeBase 5.486430 -0.000000 -0.000000
663
root -1.214641 31.781940 -6.434916 4.666401 18.145878 5.181560
Spine -8.400995 4.546097 -2.035342
Head 14.324005 -4.115509 2.387403
LeftShoulder -9.320154 16.506163 3.651042
LeftArm 27.262653 41.568805 -67.725594
LeftForeArm -0.843406 -0.000000 13.800720
LeftHand -10.575039 -0.000000 -5.725523
LeftHandThumb1 -26.253704 0.000000 33.147579
RightShoulder 11.812735 28.622852 -15.082506
RightArm 32.057122 -20.543413 104.047857
RightForeArm 23.205111 -0.000000 31.332848
RightHand -10.887462 -0.000000 7.419245
RightHandThumb1 -24.326973 -0.000000 -32.862282
LeftUpLeg -1.000824 -7.452034 -2.277962
LeftLeg 1.934707 -0.000000 -0.000000
LeftFoot -15.813003 12.576108 -23.576186
LeftToeBase 8.503525 -0.000000 -0.000000
RightUpLeg 5.357559 -10.661090 -5.237298
RightLeg -3.368980 -0.000000 0.000000
RightFoot -18.203717 -17.947388 11.183754
RightToeBase 5.476522 -0.000000 -0.000000
